<svg xmlns="http://www.w3.org/2000/svg" viewBox="0 0 200 200" fill="none">
  <rect width="200" height="200" rx="12" fill="#fff"/>
  <rect x="20" y="20" width="50" height="50" rx="4" fill="#07C160"/>
  <rect x="30" y="30" width="30" height="30" rx="2" fill="#fff"/>
  <rect x="36" y="36" width="18" height="18" fill="#07C160"/>
  <rect x="130" y="20" width="50" height="50" rx="4" fill="#07C160"/>
  <rect x="140" y="30" width="30" height="30" rx="2" fill="#fff"/>
  <rect x="146" y="36" width="18" height="18" fill="#07C160"/>
  <rect x="20" y="130" width="50" height="50" rx="4" fill="#07C160"/>
  <rect x="30" y="140" width="30" height="30" rx="2" fill="#fff"/>
  <rect x="36" y="146" width="18" height="18" fill="#07C160"/>
  <rect x="80" y="80" width="12" height="12" fill="#07C160"/>
  <rect x="100" y="80" width="12" height="12" fill="#07C160"/>
  <rect x="120" y="80" width="12" height="12" fill="#07C160"/>
  <rect x="80" y="100" width="12" height="12" fill="#07C160"/>
  <rect x="100" y="100" width="12" height="12" fill="#07C160"/>
  <rect x="120" y="100" width="12" height="12" fill="#07C160"/>
  <rect x="80" y="120" width="12" height="12" fill="#07C160"/>
  <rect x="100" y="120" width="12" height="12" fill="#07C160"/>
  <rect x="120" y="120" width="12" height="12" fill="#07C160"/>
  <rect x="140" y="140" width="12" height="12" fill="#07C160"/>
  <rect x="160" y="140" width="12" height="12" fill="#07C160"/>
  <rect x="140" y="160" width="12" height="12" fill="#07C160"/>
  <text x="100" y="195" text-anchor="middle" font-size="10" fill="#999" font-family="Arial">微信收款码</text>
</svg>
